<?xml version="1.0" encoding="UTF-8"?>
<!DOCTYPE svg PUBLIC "-//W3C//DTD SVG 1.1//EN" "http://www.w3.org/Graphics/SVG/1.1/DTD/svg11.dtd">
<svg xmlns="http://www.w3.org/2000/svg" version="1.1" width="192px" height="192px" style="shape-rendering:geometricPrecision; text-rendering:geometricPrecision; image-rendering:optimizeQuality; fill-rule:evenodd; clip-rule:evenodd" xmlns:xlink="http://www.w3.org/1999/xlink">
<g><path style="opacity:0.951" fill="#63ccc4" d="M 163.5,29.5 C 162.167,29.5 161.5,30.1667 161.5,31.5C 155.308,43.4148 149.308,55.4148 143.5,67.5C 129.528,66.0641 115.528,64.7308 101.5,63.5C 101.919,62.3279 102.585,61.3279 103.5,60.5C 107.077,58.7785 110.41,56.7785 113.5,54.5C 109.21,48.0607 105.21,41.394 101.5,34.5C 101.167,33.5 100.5,32.8333 99.5,32.5C 98.9101,31.234 98.4101,29.9007 98,28.5C 96.7322,30.8125 95.5655,33.1458 94.5,35.5C 93.5,35.8333 92.8333,36.5 92.5,37.5C 86.3453,50.4542 79.3453,62.9542 71.5,75C 70.8524,76.4397 70.5191,77.9397 70.5,79.5C 67.565,78.8863 64.7317,77.8863 62,76.5C 53.8575,71.1311 45.3575,66.2978 36.5,62C 35.1007,60.9384 34.1007,59.605 33.5,58C 41.3034,45.5635 48.4701,32.7301 55,19.5C 57.9021,14.9159 61.0687,10.5825 64.5,6.5C 67.5828,4.63896 70.9161,3.47229 74.5,3C 92.5,2.33333 110.5,2.33333 128.5,3C 135.948,13.3847 142.781,24.218 149,35.5C 152.536,31.9741 156.703,29.3074 161.5,27.5C 162.713,27.7472 163.38,28.4138 163.5,29.5 Z"/></g>
<g><path style="opacity:0.016" fill="#60cfc2" d="M 163.5,29.5 C 163.167,30.5 162.5,31.1667 161.5,31.5C 161.5,30.1667 162.167,29.5 163.5,29.5 Z"/></g>
<g><path style="opacity:0.016" fill="#60cfc2" d="M 99.5,32.5 C 100.5,32.8333 101.167,33.5 101.5,34.5C 100.167,34.5 99.5,33.8333 99.5,32.5 Z"/></g>
<g><path style="opacity:0.016" fill="#60cfc2" d="M 94.5,35.5 C 94.5,36.8333 93.8333,37.5 92.5,37.5C 92.8333,36.5 93.5,35.8333 94.5,35.5 Z"/></g>
<g><path style="opacity:0.952" fill="#63ccc4" d="M 191.5,110.5 C 191.5,115.5 191.5,120.5 191.5,125.5C 183.174,139.439 174.841,153.439 166.5,167.5C 165.5,167.833 164.833,168.5 164.5,169.5C 163.766,170.708 163.433,172.041 163.5,173.5C 150.5,173.5 137.5,173.5 124.5,173.5C 123.285,178.362 122.285,183.362 121.5,188.5C 117.442,182.43 113.775,176.097 110.5,169.5C 110.5,168.167 109.833,167.5 108.5,167.5C 105.736,161.895 102.736,156.395 99.5,151C 107.485,139.51 115.818,128.343 124.5,117.5C 125.494,122.456 125.827,127.456 125.5,132.5C 135.522,132.832 145.522,132.499 155.5,131.5C 149.928,121.62 144.261,111.787 138.5,102C 134.883,94.9081 131.55,87.7414 128.5,80.5C 140.25,74.791 151.917,68.791 163.5,62.5C 164.902,62.8655 165.902,63.6988 166.5,65C 174.931,80.1365 183.264,95.3031 191.5,110.5 Z"/></g>
<g><path style="opacity:0.955" fill="#63ccc5" d="M 50.5,84.5 C 50.5,85.8333 51.1667,86.5 52.5,86.5C 55.2239,91.6749 57.5572,97.0082 59.5,102.5C 59.8333,103.5 60.5,104.167 61.5,104.5C 62.2341,105.708 62.5674,107.041 62.5,108.5C 62.8333,109.5 63.5,110.167 64.5,110.5C 65.0889,112.352 65.7556,114.185 66.5,116C 65.1667,116.667 63.8333,116.667 62.5,116C 60.7129,114.418 58.7129,113.251 56.5,112.5C 56.1667,111.5 55.5,110.833 54.5,110.5C 53.2921,109.766 51.9587,109.433 50.5,109.5C 50.4809,111.06 50.1476,112.56 49.5,114C 45.1866,120.805 41.1866,127.805 37.5,135C 57.1926,134.843 76.526,135.676 95.5,137.5C 94.1704,143.295 93.5038,149.462 93.5,156C 93.5366,162.88 93.8699,169.713 94.5,176.5C 73.7577,176.821 53.091,176.488 32.5,175.5C 32.1667,174.5 31.5,173.833 30.5,173.5C 28.2969,172.116 26.2969,170.449 24.5,168.5C 16.3337,153.915 8.00032,139.582 -0.5,125.5C -0.5,123.5 -0.5,121.5 -0.5,119.5C 5.44784,109.568 11.1145,99.4018 16.5,89C 11.7552,86.3386 7.42191,83.1719 3.5,79.5C 16.4977,78.7354 29.4977,78.0688 42.5,77.5C 47.0614,77.5906 49.7281,79.924 50.5,84.5 Z"/></g>
<g><path style="opacity:0.016" fill="#60cfc2" d="M 50.5,84.5 C 51.5,84.8333 52.1667,85.5 52.5,86.5C 51.1667,86.5 50.5,85.8333 50.5,84.5 Z"/></g>
<g><path style="opacity:0.016" fill="#60cfc2" d="M 59.5,102.5 C 60.8333,102.5 61.5,103.167 61.5,104.5C 60.5,104.167 59.8333,103.5 59.5,102.5 Z"/></g>
<g><path style="opacity:0.016" fill="#60cfc2" d="M 62.5,108.5 C 63.8333,108.5 64.5,109.167 64.5,110.5C 63.5,110.167 62.8333,109.5 62.5,108.5 Z"/></g>
<g><path style="opacity:0.016" fill="#60cfc2" d="M 54.5,110.5 C 55.5,110.833 56.1667,111.5 56.5,112.5C 55.1667,112.5 54.5,111.833 54.5,110.5 Z"/></g>
<g><path style="opacity:0.311" fill="#61cbc6" d="M 95.5,137.5 C 95.8288,150.677 95.4955,163.677 94.5,176.5C 93.8699,169.713 93.5366,162.88 93.5,156C 93.5038,149.462 94.1704,143.295 95.5,137.5 Z"/></g>
<g><path style="opacity:0.016" fill="#60cfc2" d="M 108.5,167.5 C 109.833,167.5 110.5,168.167 110.5,169.5C 109.5,169.167 108.833,168.5 108.5,167.5 Z"/></g>
<g><path style="opacity:0.016" fill="#60cfc2" d="M 166.5,167.5 C 166.5,168.833 165.833,169.5 164.5,169.5C 164.833,168.5 165.5,167.833 166.5,167.5 Z"/></g>
<g><path style="opacity:0.016" fill="#60cfc2" d="M 30.5,173.5 C 31.5,173.833 32.1667,174.5 32.5,175.5C 31.1667,175.5 30.5,174.833 30.5,173.5 Z"/></g>
</svg>
